.
 
http://www.scenetime.com    -   SceneTime [ We been having it ] !!!


How come you press harder on a remote control when you know the battery is dead? so you better seed to get speed ;)

        Seed back for speed


...................................NFO:.................................................[IMG]http://lookpic.com/c1/i2/3830/I5hisnN1.png[/IMG]
-------------------------------------------------------------------------------------------
[IMG]http://i184.photobucket.com/albums/x292/miff2001/INFO.png[/IMG]
-------------------------------------------------------------------------------------------

General
Format                           : Matroska
File size                        : 605 MiB
Duration                         : 2h 0mn
Overall bit rate                 : 701 Kbps
Movie name                       : Avidemux
Writing application              : Lavf52.108.0
Writing library                  : Lavf52.108.0
AUTHOR                           : Avidemux

Video
ID                               : 1
Format                           : AVC
Format/Info                      : Advanced Video Codec
Format profile                   : High@L3.0
Format settings, CABAC           : Yes
Format settings, ReFrames        : 4 frames
Format settings, GOP             : M=4, N=32
Codec ID                         : V_MPEG4/ISO/AVC
Duration                         : 2h 0mn
Bit rate                         : 559 Kbps
Width                            : 720 pixels
Height                           : 400 pixels
Display aspect ratio             : 16:9
Frame rate mode                  : Variable
Frame rate                       : 24.000 fps
Color space                      : YUV
Chroma subsampling               : 4:2:0
Bit depth                        : 8 bits
Scan type                        : Progressive
Bits/(Pixel*Frame)               : 0.081
Stream size                      : 483 MiB (80%)
Writing library                  : x264 core 115 r1947 b5a8ad7
Language                         : English

Audio
ID                               : 2
Format                           : AC-3
Format/Info                      : Audio Coding 3
Mode extension                   : CM (complete main)
Codec ID                         : A_AC3
Duration                         : 2h 0mn
Bit rate mode                    : Constant
Bit rate                         : 128 Kbps
Channel(s)                       : 6 channels
Channel positions                : Front: L C R, Side: L R, LFE
Sampling rate                    : 48.0 KHz
Bit depth                        : 16 bits
Compression mode                 : Lossy
Delay relative to video          : -42ms
Stream size                      : 110 MiB (18%)
Language                         : English 
http://www.imdb.com/title/tt1233301/

[IMG]http://i184.photobucket.com/albums/x292/miff2001/SCREEN-1.png[/IMG]

[IMG]http://lookpic.com/c1/i2/1851/rtUhCO8n.jpeg[/IMG]


[IMG]http://i184.photobucket.com/albums/x292/miff2001/greet.png[/IMG]
[color=#FF4500]
---------------------------------------------------------------------
ALWAYS LOOKiNG for
SCREENERS,CAM,SiLVERS,LiNE,PRERETAiL BD/DVD. ANY REGiON
If you'd like to help, feel free to contact us at: pr3dator-rg@hushmail.me
---------------------------------------------------------------------[/color]
[IMG]http://lookpic.com/c1/i2/3765/t8sIOz7z.png[/IMG]  [IMG]http://lookpic.com/c1/i2/2254/OukJyZKz.png[/IMG]
[IMG]http://i184.photobucket.com/albums/x292/miff2001/sig2.png[/IMG]